PathFileType	4	(X/Y/Z)	 0.11m3min.trc
DataRate	CameraRate	NumFrames	NumMarkers	Units	OrigDataRate	OrigDataStartFrame	OrigNumFrames
200	200	9	34	m	200	626	1000
Frame#	Time	LSH			RSH			MAN			RASI			LASI			HIPR			HIPL			RPSI			LPSI			COX			RTHI1			RTHI2			RTHI3			RTHI4			RSHA1			RSHA2			RSHA3			RSHA4			RHEEL			RMET5			RMET1			RTOE			LTHI1			LTHI2			LTHI3			LTHI4			LSHA1			LSHA2			LSHA3			LSHA4			LHEEL			LMET5			LMET1			LTOE			
		X1	Y1	Z1	X2	Y2	Z2	X3	Y3	Z3	X4	Y4	Z4	X5	Y5	Z5	X6	Y6	Z6	X7	Y7	Z7	X8	Y8	Z8	X9	Y9	Z9	X10	Y10	Z10	X11	Y11	Z11	X12	Y12	Z12	X13	Y13	Z13	X14	Y14	Z14	X15	Y15	Z15	X16	Y16	Z16	X17	Y17	Z17	X18	Y18	Z18	X19	Y19	Z19	X20	Y20	Z20	X21	Y21	Z21	X22	Y22	Z22	X23	Y23	Z23	X24	Y24	Z24	X25	Y25	Z25	X26	Y26	Z26	X27	Y27	Z27	X28	Y28	Z28	X29	Y29	Z29	X30	Y30	Z30	X31	Y31	Z31	X32	Y32	Z32	X33	Y33	Z33	X34	Y34	Z34	
626	3.1300	-0.256995	1.378954	-0.700704	-0.260466	1.360264	-0.355512	-0.193843	1.335587	-0.528794	-0.175471	0.933036	-0.407148	-0.168090	0.933545	-0.641300	-0.231915	0.977032	-0.383956	-0.225749	0.974673	-0.668074	-0.336357	0.958827	-0.471016	-0.331085	0.960080	-0.584154	-0.337620	0.963750	-0.527333	-0.262330	0.722088	-0.363772	-0.234306	0.669452	-0.358368	-0.177099	0.696178	-0.345286	-0.197599	0.754201	-0.348253	-0.273572	0.331072	-0.355363	-0.293386	0.294102	-0.366320	-0.236805	0.272963	-0.370761	-0.221215	0.309794	-0.364575	-0.402255	0.117532	-0.421667	-0.267498	0.030083	-0.370047	-0.242024	0.036810	-0.439939	-0.215755	0.027171	-0.438118	-0.230242	0.736614	-0.700779	-0.206025	0.679883	-0.696071	-0.145277	0.700772	-0.684673	-0.162046	0.758038	-0.688639	-0.267359	0.335363	-0.687670	-0.290568	0.302469	-0.685851	-0.236082	0.273560	-0.673153	-0.219143	0.314277	-0.677350	-0.418676	0.108206	-0.638529	-0.281895	0.034708	-0.684190	-0.248431	0.035809	-0.615968	-0.224717	0.027393	-0.617980	
627	3.1350	-0.257038	1.386458	-0.700471	-0.260550	1.368048	-0.355913	-0.193941	1.343172	-0.528812	-0.174640	0.940495	-0.407555	-0.167489	0.940948	-0.641152	-0.230448	0.985062	-0.384129	-0.224963	0.982433	-0.667767	-0.335441	0.966017	-0.470828	-0.330351	0.967202	-0.584071	-0.336901	0.970709	-0.527201	-0.262811	0.729307	-0.363573	-0.235211	0.676447	-0.358229	-0.177719	0.702753	-0.345451	-0.197757	0.760920	-0.348429	-0.274992	0.336096	-0.355163	-0.294350	0.298857	-0.365918	-0.237459	0.278402	-0.370051	-0.222425	0.315436	-0.364061	-0.399921	0.121013	-0.421039	-0.266855	0.030460	-0.370248	-0.241768	0.036763	-0.439977	-0.215889	0.027195	-0.438236	-0.230286	0.743966	-0.701038	-0.206393	0.687103	-0.696302	-0.145577	0.707656	-0.684666	-0.162013	0.765013	-0.688648	-0.268836	0.340749	-0.688207	-0.291582	0.307518	-0.686295	-0.236622	0.279342	-0.673993	-0.220268	0.320285	-0.678247	-0.415953	0.112298	-0.638742	-0.280966	0.035377	-0.683987	-0.248225	0.035756	-0.615797	-0.224818	0.027408	-0.617903	
628	3.1400	-0.257037	1.394036	-0.700209	-0.260650	1.375938	-0.356328	-0.194088	1.350803	-0.528854	-0.173846	0.948039	-0.407953	-0.166901	0.948426	-0.640963	-0.228979	0.993129	-0.384318	-0.224102	0.990224	-0.667464	-0.334506	0.973298	-0.470637	-0.329585	0.974443	-0.584032	-0.336159	0.977768	-0.527083	-0.263336	0.736610	-0.363340	-0.236176	0.683532	-0.358023	-0.178406	0.709408	-0.345536	-0.197970	0.767716	-0.348560	-0.276444	0.341166	-0.354913	-0.295304	0.303655	-0.365498	-0.238080	0.283910	-0.369239	-0.223649	0.321151	-0.363460	-0.397349	0.124585	-0.420511	-0.266193	0.030825	-0.370441	-0.241487	0.036733	-0.440010	-0.216025	0.027225	-0.438315	-0.230555	0.751414	-0.701256	-0.206988	0.694414	-0.696567	-0.146075	0.714612	-0.684842	-0.162171	0.772067	-0.688795	-0.270300	0.346194	-0.688777	-0.292559	0.312616	-0.686722	-0.237108	0.285207	-0.674914	-0.221363	0.326370	-0.679266	-0.412971	0.116499	-0.638823	-0.279997	0.036051	-0.683810	-0.248000	0.035697	-0.615614	-0.224928	0.027427	-0.617828	
629	3.1450	-0.256983	1.401642	-0.699917	-0.260760	1.383873	-0.356760	-0.194284	1.358462	-0.528901	-0.173094	0.955606	-0.408343	-0.166324	0.955929	-0.640737	-0.227587	1.001172	-0.384561	-0.223190	0.998005	-0.667166	-0.333551	0.980644	-0.470455	-0.328786	0.981773	-0.584019	-0.335389	0.984900	-0.526983	-0.263897	0.743954	-0.363065	-0.237184	0.690661	-0.357747	-0.179141	0.716104	-0.345536	-0.198226	0.774545	-0.348638	-0.277916	0.346260	-0.354610	-0.296214	0.308445	-0.365099	-0.238711	0.289441	-0.368371	-0.224848	0.326920	-0.362752	-0.394526	0.128227	-0.420075	-0.265513	0.031171	-0.370624	-0.241163	0.036723	-0.440024	-0.216153	0.027273	-0.438339	-0.231031	0.758918	-0.701447	-0.207790	0.701785	-0.696871	-0.146755	0.721619	-0.685193	-0.162506	0.779168	-0.689068	-0.271729	0.351649	-0.689358	-0.293468	0.317720	-0.687111	-0.237505	0.291131	-0.675894	-0.222409	0.332510	-0.680374	-0.409714	0.120776	-0.638757	-0.278992	0.036720	-0.683656	-0.247753	0.035640	-0.615429	-0.225039	0.027450	-0.617759	
630	3.1500	-0.256873	1.409232	-0.699601	-0.260931	1.391796	-0.357179	-0.194515	1.366111	-0.528951	-0.172389	0.963143	-0.408715	-0.165759	0.963414	-0.640481	-0.226287	1.009118	-0.384842	-0.222253	1.005737	-0.666866	-0.332570	0.988013	-0.470295	-0.327946	0.989160	-0.584016	-0.334588	0.992078	-0.526894	-0.264480	0.751295	-0.362753	-0.238208	0.697796	-0.357415	-0.179905	0.722797	-0.345455	-0.198515	0.781361	-0.348658	-0.279384	0.351316	-0.354285	-0.297073	0.313201	-0.364720	-0.239310	0.294987	-0.367453	-0.225994	0.332700	-0.361942	-0.391439	0.131948	-0.419726	-0.264811	0.031512	-0.370803	-0.240763	0.036741	-0.440003	-0.216259	0.027341	-0.438286	-0.231691	0.766453	-0.701616	-0.208772	0.709193	-0.697210	-0.147589	0.728645	-0.685706	-0.162996	0.786299	-0.689451	-0.273109	0.357065	-0.689925	-0.294282	0.322796	-0.687452	-0.237785	0.297063	-0.676911	-0.223382	0.338674	-0.681542	-0.406173	0.125094	-0.638535	-0.277948	0.037386	-0.683527	-0.247471	0.035599	-0.615253	-0.225137	0.027479	-0.617704	
631	3.1550	-0.256707	1.416763	-0.699265	-0.261109	1.399681	-0.357598	-0.194806	1.373702	-0.528997	-0.171727	0.970596	-0.409075	-0.165199	0.970827	-0.640196	-0.225100	1.016919	-0.385143	-0.221305	1.013399	-0.666566	-0.331573	0.995381	-0.470152	-0.327067	0.996565	-0.584009	-0.333757	0.999274	-0.526809	-0.265064	0.758592	-0.362425	-0.239238	0.704897	-0.357036	-0.180685	0.729448	-0.345311	-0.198828	0.788141	-0.348622	-0.280830	0.356295	-0.354008	-0.297862	0.317874	-0.364398	-0.239831	0.300510	-0.366487	-0.227083	0.338474	-0.361029	-0.388073	0.135709	-0.419408	-0.264076	0.031859	-0.370986	-0.240298	0.036809	-0.439917	-0.216329	0.027442	-0.438127	-0.232500	0.773988	-0.701753	-0.209900	0.716605	-0.697579	-0.148545	0.735669	-0.686360	-0.163620	0.793427	-0.689938	-0.274418	0.362426	-0.690436	-0.294983	0.327815	-0.687727	-0.237934	0.302998	-0.677961	-0.224274	0.344825	-0.682735	-0.402348	0.129420	-0.638178	-0.276861	0.038047	-0.683420	-0.247134	0.035598	-0.615098	-0.225195	0.027517	-0.617669	
632	3.1600	-0.256484	1.424196	-0.698914	-0.261278	1.407494	-0.358017	-0.195225	1.381179	-0.529026	-0.171107	0.977909	-0.409416	-0.164640	0.978124	-0.639886	-0.224033	1.024539	-0.385455	-0.220364	1.020962	-0.666261	-0.330560	1.002718	-0.470032	-0.326152	1.003952	-0.583982	-0.332887	1.006462	-0.526732	-0.265643	0.765806	-0.362100	-0.240249	0.711914	-0.356630	-0.181472	0.736028	-0.345110	-0.199160	0.794844	-0.348564	-0.282245	0.361191	-0.353804	-0.298561	0.322451	-0.364119	-0.240270	0.305991	-0.365491	-0.228125	0.344196	-0.360074	-0.384453	0.139518	-0.419096	-0.263308	0.032215	-0.371170	-0.239751	0.036939	-0.439752	-0.216336	0.027574	-0.437844	-0.233425	0.781498	-0.701858	-0.211135	0.723994	-0.697973	-0.149593	0.742668	-0.687129	-0.164347	0.800522	-0.690502	-0.275653	0.367703	-0.690872	-0.295554	0.332740	-0.687926	-0.237955	0.308893	-0.679031	-0.225087	0.350940	-0.683915	-0.398251	0.133738	-0.637714	-0.275717	0.038714	-0.683325	-0.246705	0.035663	-0.614980	-0.225176	0.027574	-0.617669	
633	3.1650	-0.256207	1.431501	-0.698554	-0.261433	1.415198	-0.358446	-0.195646	1.388553	-0.529054	-0.170523	0.985037	-0.409742	-0.164080	0.985266	-0.639558	-0.223079	1.031958	-0.385777	-0.219442	1.028409	-0.665943	-0.329522	1.009989	-0.469944	-0.325195	1.011286	-0.583916	-0.331989	1.013604	-0.526662	-0.266214	0.772893	-0.361791	-0.241241	0.718811	-0.356216	-0.182254	0.742498	-0.344857	-0.199503	0.801435	-0.348498	-0.283621	0.365976	-0.353686	-0.299166	0.326907	-0.363908	-0.240623	0.311403	-0.364475	-0.229110	0.349840	-0.359114	-0.380598	0.143363	-0.418760	-0.262499	0.032611	-0.371368	-0.239089	0.037168	-0.439494	-0.216253	0.027740	-0.437428	-0.234425	0.788945	-0.701923	-0.212444	0.731331	-0.698383	-0.150705	0.749616	-0.687983	-0.165150	0.807558	-0.691118	-0.276824	0.372855	-0.691206	-0.296006	0.337536	-0.688052	-0.237855	0.314721	-0.680102	-0.225828	0.356993	-0.685053	-0.393913	0.138028	-0.637195	-0.274506	0.039402	-0.683233	-0.246139	0.035838	-0.614916	-0.225031	0.027660	-0.617719	
634	3.1700	-0.255886	1.438644	-0.698194	-0.261570	1.422786	-0.358890	-0.196063	1.395767	-0.529079	-0.169962	0.991934	-0.410044	-0.163515	0.992213	-0.639221	-0.222210	1.039147	-0.386083	-0.218546	1.035711	-0.665608	-0.328462	1.017161	-0.469886	-0.324201	1.018526	-0.583804	-0.331072	1.020669	-0.526594	-0.266767	0.779814	-0.361523	-0.242198	0.725547	-0.355820	-0.183027	0.748821	-0.344570	-0.199857	0.807878	-0.348423	-0.284934	0.370615	-0.353713	-0.299697	0.331239	-0.363741	-0.240856	0.316734	-0.363441	-0.230080	0.355386	-0.358215	-0.376529	0.147257	-0.418362	-0.261636	0.033073	-0.371568	-0.238299	0.037523	-0.439129	-0.216053	0.027940	-0.436883	-0.235472	0.796304	-0.701953	-0.213795	0.738583	-0.698801	-0.151853	0.756481	-0.688896	-0.166000	0.814504	-0.691763	-0.277941	0.377867	-0.691427	-0.296356	0.342185	-0.688110	-0.237664	0.320456	-0.681179	-0.226525	0.362957	-0.686129	-0.389398	0.142298	-0.636691	-0.273222	0.040138	-0.683145	-0.245379	0.036171	-0.614922	-0.224706	0.027791	-0.617832	
